<?xml version="1.0" standalone="no"?><!DOCTYPE svg PUBLIC "-//W3C//DTD SVG 1.1//EN" "http://www.w3.org/Graphics/SVG/1.1/DTD/svg11.dtd"><svg class="icon" width="200px" height="200.00px" viewBox="0 0 1024 1024" version="1.1" xmlns="http://www.w3.org/2000/svg"><path d="M745.955409 437.950476c0-77.743269-28.903753-145.892035-86.702835-204.460086-57.603776-53.905216-126.384414-80.865867-206.36566-80.865867-79.980479 0-148.866813 26.959884-206.673554 80.865867-55.520512 58.568051-83.289193 126.716818-83.289193 204.460086 0 77.940872 27.767915 143.970378 83.289193 198.088516 57.807506 56.340031 126.69384 84.510046 206.673554 84.510046 79.981245 0 148.761884-28.170015 206.36566-84.510046C717.052422 581.920854 745.955409 515.891348 745.955409 437.950476M852.553413 437.950476c0 91.07003-27.761022 170.125295-83.288427 237.158903l169.999686 165.375147 19.894403 48.766754-19.894403 51.795146-3.422067 3.327861c-13.260127 12.930022-29.933897 18.384803-50.029733 16.36128-19.894403 0-36.575832-6.559217-50.038158-19.688375L662.666983 772.336525c-62.162447 34.729233-129.913708 52.10304-203.259912 52.10304-111.049448 0-204.386559-37.85949-280.003673-113.589192-77.70191-75.726639-116.548652-166.687144-116.548652-272.899897 0-106.016681 38.846742-196.880682 116.548652-272.608087 75.617114-75.720511 168.954225-113.580767 280.003673-113.580767 108.778538 0 202.115648 37.860256 280.021289 113.580767C814.850168 241.069794 852.553413 331.933795 852.553413 437.950476" fill="#ffffff" /></svg>